<?xml version="1.0" encoding="UTF-8"?>
<svg version="1.1" xmlns="http://www.w3.org/2000/svg" width="512" height="512">
<path d="M0 0 C7.27550646 4.94776192 12.02491834 10.37231343 14 19 C14.81998855 27.62235133 13.30370914 35.58943899 11.30175591 43.94855499 C10.35742913 47.89846119 9.46164028 51.85962746 8.55517578 55.81835938 C8.35333774 56.69386066 8.15149969 57.56936195 7.94354534 58.47139359 C5.51259387 69.04339599 3.24081017 79.64947587 0.96398163 90.25553513 C0.16962642 93.95568558 -0.62648221 97.65545504 -1.42303467 101.35513306 C-2.549172 106.58639107 -3.67458224 111.81780451 -4.79925537 117.04937744 C-6.45162981 124.73545823 -8.105627 132.42118922 -9.75996304 140.106848 C-14.52492007 162.24399984 -19.28629238 184.38192268 -24.04742432 206.51989746 C-24.21712724 207.30896909 -24.38683017 208.09804072 -24.56167561 208.91102362 C-24.73159816 209.70111649 -24.90152072 210.49120936 -25.07659245 211.30524445 C-25.24670184 212.09620545 -25.41681124 212.88716646 -25.59207547 213.70209599 C-25.93599091 215.30120856 -26.27990518 216.90032139 -26.62381828 218.49943447 C-29.53991997 232.05854279 -32.45682537 245.61747809 -35.37422276 259.17630768 C-37.01436988 266.79922837 -38.65404588 274.42224981 -40.29251099 282.04553223 C-40.91707471 284.95125738 -41.5416631 287.85697724 -42.16625977 290.76269531 C-42.31953936 291.47582288 -42.47281895 292.18895044 -42.63074338 292.92368793 C-44.29244196 300.65398651 -45.95651723 308.38376027 -47.62748718 316.11206055 C-47.77468242 316.79291796 -47.92187766 317.47377538 -48.07353336 318.17526484 C-48.66646692 320.91775983 -49.25941246 323.66025218 -49.85269892 326.40267086 C-51.71767681 335.02504708 -53.56698007 343.65057195 -55.39789569 352.28024733 C-56.66533921 358.25244231 -57.94196778 364.22262738 -59.22496045 370.19150102 C-59.98299818 373.72046205 -60.73629195 377.25027689 -61.47751999 380.78281021 C-62.29144767 384.66162873 -63.12661159 388.53570907 -63.96337891 392.40966797 C-64.31429785 394.10854723 -64.31429785 394.10854723 -64.67230606 395.84174728 C-66.91034487 406.05103708 -70.03516351 414.99693876 -79 421 C-85.06929665 424.52019205 -90.98886601 425.82945409 -98 425 C-108.53465037 422.17403635 -118.34169237 416.57469624 -128.0625 411.75 C-140.59192631 405.54534365 -153.17671788 399.57542416 -166 394 C-167.03261963 394.78729492 -168.06523926 395.57458984 -169.12915039 396.38574219 C-177.19996075 402.52994343 -185.407755 408.40250576 -193.81030273 414.08422852 C-198.35905068 417.16816401 -202.84199068 420.31652415 -207.26782227 423.57421875 C-215.97340354 429.98110697 -224.90661474 436.00293459 -233.9375 441.9375 C-234.553974 442.34446106 -235.170448 442.75142212 -235.80560303 443.17071533 C-258.6784877 458.24822685 -258.6784877 458.24822685 -267 457 C-272.87352702 455.2080765 -275.55151663 452.86844711 -279 448 C-279.98697023 445.0390893 -280.1370707 443.07565238 -280.16062927 439.98554993 C-280.17569771 438.4316732 -280.17569771 438.4316732 -280.19107056 436.84640503 C-280.19690155 435.71026764 -280.20273254 434.57413025 -280.20874023 433.40356445 C-280.21852402 432.20653397 -280.2283078 431.00950348 -280.23838806 429.77619934 C-280.26836134 425.80524788 -280.29003898 421.83429819 -280.30859375 417.86328125 C-280.31189107 417.186935 -280.31518839 416.51058876 -280.31858563 415.81374717 C-280.34936893 409.43095935 -280.3760671 403.0481667 -280.39300442 396.66532612 C-280.41489601 388.51207097 -280.45683828 380.35947558 -280.52644199 372.20648414 C-280.57376229 366.46792104 -280.59794868 360.72953542 -280.6052013 354.99078339 C-280.61014623 351.56634959 -280.62511322 348.14265977 -280.6649456 344.7184391 C-280.70382607 340.8929066 -280.7048977 337.06909116 -280.69702148 333.2434082 C-280.71702209 332.11739197 -280.73702271 330.99137573 -280.75762939 329.83123779 C-280.68901307 322.39832509 -279.13574782 318.35997358 -274 313 C-273.03474125 311.90922127 -272.06983218 310.81813287 -271.10546875 309.7265625 C-270.13646605 308.68928318 -269.16373763 307.65547305 -268.1875 306.625 C-267.12839128 305.49266895 -266.0698016 304.35985222 -265.01171875 303.2265625 C-264.24093994 302.40333496 -264.24093994 302.40333496 -263.45458984 301.56347656 C-261.44201235 299.40024289 -259.46938474 297.20255415 -257.5 295 C-253.06629286 290.05409564 -248.5605658 285.17713346 -244.05078125 280.30078125 C-237.84683239 273.5921578 -231.66313207 266.8653631 -225.5625 260.0625 C-221.56482627 255.60713196 -217.50799115 251.20916481 -213.44165039 246.81665039 C-210.43603927 243.56634649 -207.45448076 240.29702925 -204.5 237 C-200.06629286 232.05409564 -195.5605658 227.17713346 -191.05078125 222.30078125 C-184.84683239 215.5921578 -178.66313207 208.8653631 -172.5625 202.0625 C-168.56482627 197.60713196 -164.50799115 193.20916481 -160.44165039 188.81665039 C-157.43603927 185.56634649 -154.45448076 182.29702925 -151.5 179 C-147.52469946 174.56379505 -143.48792332 170.18745602 -139.44140625 165.81640625 C-136.43589278 162.56616903 -133.45440391 159.2969435 -130.5 156 C-126.06629286 151.05409564 -121.5605658 146.17713346 -117.05078125 141.30078125 C-112.34930112 136.21684833 -107.66839846 131.11433503 -103 126 C-102.13632812 125.05382812 -101.27265625 124.10765625 -100.3828125 123.1328125 C-99.17238281 121.79863281 -99.17238281 121.79863281 -97.9375 120.4375 C-97.22464844 119.65246094 -96.51179688 118.86742187 -95.77734375 118.05859375 C-93.85872696 115.92230206 -93.85872696 115.92230206 -92 113 C-92.89460938 113.7734375 -93.78921875 114.546875 -94.7109375 115.34375 C-100.78762638 120.58370153 -106.88385966 125.76968858 -113.1796875 130.74609375 C-116.96463891 133.77090949 -120.70036253 136.85392439 -124.4375 139.9375 C-125.18104736 140.55093262 -125.92459473 141.16436523 -126.69067383 141.79638672 C-128.1425995 142.99427748 -129.59450447 144.19219333 -131.04638672 145.39013672 C-133.52568661 147.43318889 -136.0118717 149.467712 -138.5 151.5 C-145.27544122 157.03702976 -152.02547676 162.60489025 -158.77832031 168.16943359 C-163.05490022 171.69314746 -167.33273337 175.21533967 -171.61035156 178.73779297 C-175.22764791 181.71659562 -178.84460131 184.69581299 -182.4609375 187.67578125 C-189.32681051 193.3328738 -196.19738185 198.98381206 -203.0859375 204.61328125 C-208.99411667 209.4522859 -214.88460244 214.31283528 -220.77832031 219.16943359 C-225.05490022 222.69314746 -229.33273337 226.21533967 -233.61035156 229.73779297 C-237.22764791 232.71659562 -240.84460131 235.69581299 -244.4609375 238.67578125 C-251.32681051 244.3328738 -258.19738185 249.98381206 -265.0859375 255.61328125 C-270.99411667 260.4522859 -276.88460244 265.31283528 -282.77832031 270.16943359 C-284.9430989 271.953116 -287.10819125 273.73641659 -289.2734375 275.51953125 C-289.97202881 276.09485596 -290.67062012 276.67018066 -291.39038086 277.26293945 C-292.79467125 278.41923226 -294.19913041 279.57532015 -295.60375977 280.73120117 C-299.2624468 283.7425202 -302.91731084 286.75831236 -306.56640625 289.78125 C-307.695625 290.71517578 -307.695625 290.71517578 -308.84765625 291.66796875 C-310.27205782 292.84617746 -311.69532971 294.02575396 -313.1171875 295.20703125 C-329.16286903 308.46766352 -329.16286903 308.46766352 -337.078125 307.8203125 C-342.57769692 307.13999303 -346.9294749 304.9518636 -351.8125 302.4375 C-361.19331853 297.77869043 -370.66627811 293.42300475 -380.25167847 289.20562744 C-384.88887786 287.16251858 -389.51733995 285.09967095 -394.1474762 283.0406189 C-397.90112926 281.3724336 -401.65706747 279.70997365 -405.41943359 278.06152344 C-408.89250626 276.53854487 -412.35487319 274.99335564 -415.8107605 273.43179321 C-417.08151706 272.86215751 -418.3557974 272.30030413 -419.63381958 271.74716187 C-429.08163915 267.65134294 -436.48228562 262.74302981 -441 253.1875 C-443.07029806 246.39475733 -443.08549304 238.85856885 -440.4375 232.25 C-435.47186256 223.07842238 -429.06471904 218.38371157 -419.824646 213.73129272 C-417.30390062 212.46198212 -414.80313971 211.15528734 -412.30050659 209.85072327 C-411.02228348 209.18474093 -409.74308596 208.52062546 -408.46292114 207.85838318 C-402.84789735 204.94784249 -397.35450322 201.84532409 -391.875 198.6875 C-381.63170528 192.82200307 -371.21225984 187.31702283 -360.76586914 181.82556152 C-351.89192782 177.15780802 -343.07423001 172.42624049 -334.375 167.4375 C-323.96251616 161.46727025 -313.3810031 155.84319162 -302.77099609 150.23510742 C-301.40849836 149.51486849 -300.04603055 148.79457293 -298.68359375 148.07421875 C-297.68749084 147.54757881 -297.68749084 147.54757881 -296.67126465 147.01029968 C-289.16858665 143.03853019 -281.72085724 138.96801493 -274.27734375 134.88671875 C-270.569004 132.85378752 -266.8520825 130.83766177 -263.12890625 128.83203125 C-253.17211815 123.46709468 -243.26157507 118.04228761 -233.4375 112.4375 C-224.92661031 107.58439867 -216.30914457 102.99310842 -207.60058594 98.50610352 C-201.04028759 95.10916199 -194.5962701 91.54887532 -188.1875 87.875 C-178.56907441 82.36528562 -168.81060707 77.15592476 -159 72 C-149.37985921 66.9433217 -139.80438331 61.84496092 -130.375 56.4375 C-119.96251616 50.46727025 -109.3810031 44.84319162 -98.77099609 39.23510742 C-97.40849836 38.51486849 -96.04603055 37.79457293 -94.68359375 37.07421875 C-94.01952515 36.72312546 -93.35545654 36.37203217 -92.67126465 36.01029968 C-85.17786835 32.04344374 -77.73932685 27.9779804 -70.3046875 23.90234375 C-66.50431379 21.81907528 -62.69611145 19.75092208 -58.8828125 17.69140625 C-57.84833984 17.13267822 -56.81386719 16.5739502 -55.74804688 15.99829102 C-53.68987955 14.88731186 -51.63129549 13.77710435 -49.57226562 12.66772461 C-45.08835775 10.24483718 -40.62192514 7.80363144 -36.2109375 5.25 C-35.13078369 4.62677856 -35.13078369 4.62677856 -34.02880859 3.9909668 C-32.73748527 3.24088043 -31.45076592 2.482769 -30.17041016 1.71411133 C-20.6233386 -3.83416567 -10.07290395 -4.6996907 0 0 Z " fill="#011D37" transform="translate(470,29)"/>
</svg>
